<svg width="434" height="328" viewBox="0 0 434 328" fill="none" xmlns="http://www.w3.org/2000/svg">
<path fill-rule="evenodd" clip-rule="evenodd" d="M230.704 0.512051C177.817 0.940051 168.729 1.22705 167.189 2.51205C166.2 3.33705 162.923 6.03107 159.907 8.49807C156.89 10.9661 154.197 13.249 153.922 13.572C153.066 14.578 142.534 23.8361 138.064 27.5121C135.724 29.4371 132.777 31.9121 131.517 33.0121C130.256 34.1121 128.141 35.9121 126.815 37.0121C116.89 45.2481 112.283 49.1621 111.422 50.0901C110.872 50.6831 104.797 55.8231 97.9225 61.5121C91.0475 67.2011 84.6965 72.565 83.8105 73.434C82.9235 74.302 80.3025 76.587 77.9855 78.512C75.6685 80.437 71.4445 84.08 68.5975 86.609C65.7515 89.137 58.0225 95.729 51.4225 101.257C44.8225 106.786 38.5174 112.143 37.4124 113.161C36.3064 114.179 33.3814 116.646 30.9124 118.644C28.4424 120.641 25.2715 123.341 23.8655 124.644C20.3555 127.895 15.1235 132.368 10.1695 136.355C7.88447 138.193 4.75645 140.863 3.21845 142.288L0.422459 144.879L0.0804487 228.946C-0.106551 275.182 0.0434472 316.275 0.416447 320.262L1.09345 327.512H192.04H382.988L382.705 316.262L382.422 305.012L296.422 304.841C249.122 304.747 209.86 304.634 209.172 304.591C208.183 304.528 207.928 287.87 207.952 224.762L207.983 145.012L221.103 133.512C228.319 127.187 234.721 121.562 235.33 121.012C238.419 118.223 255.9 102.56 259.327 99.512C261.491 97.587 264.705 94.662 266.47 93.012C268.235 91.362 271.84 88.212 274.483 86.012C277.126 83.812 281.942 79.558 285.185 76.56C288.429 73.561 292.059 70.266 293.252 69.239C294.446 68.211 296.772 66.197 298.422 64.763C302.084 61.581 326.713 39.5991 328.955 37.5121C329.842 36.6871 336.133 31.0621 342.936 25.0121C349.739 18.9621 357.985 11.4251 361.259 8.26205C364.533 5.09905 367.634 2.51205 368.15 2.51205C368.666 2.51205 368.901 1.95005 368.672 1.26205C368.198 -0.158949 335.515 -0.336949 230.704 0.512051Z" fill="black"/>
</svg>
